<svg width="12" height="13" viewBox="0 0 12 13" fill="none" xmlns="http://www.w3.org/2000/svg">
<path d="M11.6121 4.72554L8.01478 4.17806L6.40666 0.764102C6.36274 0.670629 6.29048 0.594961 6.20122 0.548967C5.97736 0.43324 5.70532 0.529679 5.59339 0.764102L3.98528 4.17806L0.38791 4.72554C0.288731 4.74038 0.198053 4.78934 0.128627 4.86352C0.0446959 4.95386 -0.00155415 5.0754 3.98784e-05 5.20142C0.0016339 5.32745 0.0509416 5.44766 0.137128 5.53563L2.73987 8.19291L2.12496 11.9452C2.11054 12.0324 2.11976 12.1222 2.15159 12.2043C2.18341 12.2864 2.23655 12.3575 2.305 12.4095C2.37344 12.4616 2.45444 12.4925 2.53882 12.4988C2.6232 12.5051 2.70757 12.4865 2.78238 12.4452L6.00003 10.6736L9.21768 12.4452C9.30553 12.4941 9.40754 12.5104 9.5053 12.4926C9.75183 12.4481 9.9176 12.2033 9.8751 11.9452L9.26019 8.19291L11.8629 5.53563C11.9338 5.46293 11.9805 5.36798 11.9947 5.26412C12.033 5.00447 11.8601 4.76412 11.6121 4.72554Z" fill="#1B1C21"/>
</svg>
